name GIL02_free2.mot
datacolumns 153
datarows 4
range 0.85833335 0.88333333
endheader

                time	           pelvis_tx	           pelvis_ty	           pelvis_tz	         pelvis_tilt	         pelvis_list	     pelvis_rotation	       hip_flexion_r	     hip_adduction_r	      hip_rotation_r	        knee_angle_r	       ankle_angle_r	    subtalar_angle_r	         mtp_angle_r	       hip_flexion_l	     hip_adduction_l	      hip_rotation_l	        knee_angle_l	       ankle_angle_l	    subtalar_angle_l	         mtp_angle_l	    lumbar_extension	      lumbar_bending	     lumbar_rotation	     ground_force_vx	     ground_force_vy	     ground_force_vz	     ground_force_px	     ground_force_py	     ground_force_pz	     ground_force_vx	     ground_force_vy	     ground_force_vz	     ground_force_px	     ground_force_py	     ground_force_pz	     ground_torque_x	     ground_torque_y	     ground_torque_z	     ground_torque_x	     ground_torque_y	     ground_torque_z	    ground_marker_px	    ground_marker_py	    ground_marker_pz	    ground_marker_px	    ground_marker_py	    ground_marker_pz	    ground_marker_px	    ground_marker_py	    ground_marker_pz	    ground_marker_px	    ground_marker_py	    ground_marker_pz	    ground_marker_px	    ground_marker_py	    ground_marker_pz	    ground_marker_px	    ground_marker_py	    ground_marker_pz	    ground_marker_px	    ground_marker_py	    ground_marker_pz	    ground_marker_px	    ground_marker_py	    ground_marker_pz	    ground_marker_px	    ground_marker_py	    ground_marker_pz	    ground_marker_px	    ground_marker_py	    ground_marker_pz	    ground_marker_px	    ground_marker_py	    ground_marker_pz	    ground_marker_px	    ground_marker_py	    ground_marker_pz	    ground_marker_px	    ground_marker_py	    ground_marker_pz	    ground_marker_px	    ground_marker_py	    ground_marker_pz	    ground_marker_px	    ground_marker_py	    ground_marker_pz	    ground_marker_px	    ground_marker_py	    ground_marker_pz	    ground_marker_px	    ground_marker_py	    ground_marker_pz	    ground_marker_px	    ground_marker_py	    ground_marker_pz	    ground_marker_px	    ground_marker_py	    ground_marker_pz	    ground_marker_px	    ground_marker_py	    ground_marker_pz	    ground_marker_px	    ground_marker_py	    ground_marker_pz	    ground_marker_px	    ground_marker_py	    ground_marker_pz	    ground_marker_px	    ground_marker_py	    ground_marker_pz	    ground_marker_px	    ground_marker_py	    ground_marker_pz	    ground_marker_px	    ground_marker_py	    ground_marker_pz	    ground_marker_px	    ground_marker_py	    ground_marker_pz	    ground_marker_px	    ground_marker_py	    ground_marker_pz	    ground_marker_px	    ground_marker_py	    ground_marker_pz	    ground_marker_px	    ground_marker_py	    ground_marker_pz	    ground_marker_px	    ground_marker_py	    ground_marker_pz	    ground_marker_px	    ground_marker_py	    ground_marker_pz	    ground_marker_px	    ground_marker_py	    ground_marker_pz	    ground_marker_px	    ground_marker_py	    ground_marker_pz	    ground_marker_px	    ground_marker_py	    ground_marker_pz	    ground_marker_px	    ground_marker_py	    ground_marker_pz	    ground_marker_px	    ground_marker_py	    ground_marker_pz	    ground_marker_px	    ground_marker_py	    ground_marker_pz	
          0.85833335	          2.06161547	          0.96530974	         -0.23686807	          0.74029446	          4.06550932	         -3.78448129	         22.95351410	         -6.38243294	         11.31425095	        -56.82937622	         -7.31405973	          0.00000000	          0.00000000	          2.05378056	          7.98142195	          5.35163784	         -8.62749100	          6.28006792	          0.00000000	          0.00000000	         -9.39251328	         -0.45924741	         -2.19402385	          0.00000000	          0.00000000	          0.00000000	          1.49602905	          0.00000000	         -0.14940450	        -25.77927951	        501.51767108	         13.47239991	          2.01719385	          0.00000000	         -0.27052057	          0.00000000	          0.00000000	          0.00000000	          0.00000000	         -0.73786389	          0.00000000	          1.97952366	          0.89703786	         -0.24139729	          1.97068834	          0.87358701	         -0.17368065	          1.98250389	          0.88208526	         -0.32340422	          2.13353848	          0.49011856	         -0.13587232	          1.99803650	          0.46532226	         -0.28743622	          1.91558146	          0.16668190	         -0.14703423	          1.95237911	          0.07015581	         -0.25597399	          2.06161547	          0.96530974	         -0.23686807	          2.05237389	          0.95866275	         -0.11975987	          2.07085729	          0.97195667	         -0.35397628	          1.87278020	          1.00070274	         -0.21049434	          1.88381743	          1.00524247	         -0.29543900	          2.13698459	          0.49729621	         -0.07791668	          2.00830364	          0.46079388	         -0.34434032	          2.15036941	          0.47955847	         -0.18635191	          1.98038769	          0.47780079	         -0.23028778	          1.89977145	          0.17611036	         -0.11152155	          1.93879819	          0.06881617	         -0.29250842	          1.93427229	          0.17073563	         -0.17265593	          1.95857000	          0.08681468	         -0.23044439	          1.87687886	          1.43104136	         -0.23038469	          2.00003982	          1.35505795	         -0.17224385	          2.01233697	          1.35963976	         -0.27826223	          1.98876429	          1.36501813	         -0.22410160	          2.07168841	          1.20188284	         -0.23327290	          2.14099407	          0.60321772	         -0.00176642	          2.14506865	          0.56904280	         -0.28397325	          2.13704062	          0.66872913	         -0.06901053	          2.08087516	          0.61913878	         -0.33732292	          2.17304707	          0.58888495	         -0.08658252	          2.05959630	          0.53427339	         -0.32475051	          1.97707748	          0.28158107	         -0.02044703	          1.98743474	          0.19515684	         -0.38402373	          1.96106040	          0.25468087	         -0.09546649	          1.95731950	          0.16551797	         -0.31381965	          1.98306561	          0.06967715	         -0.11386485	          2.07329226	          0.03928066	         -0.26458418	
          0.86666667	          2.07064819	          0.96549153	         -0.23745260	          0.88062859	          3.76395321	         -3.69637942	         23.46496201	         -6.00566721	         12.17701817	        -54.98760986	         -6.18332386	          0.00000000	          0.00000000	          1.11504173	          7.77922297	          5.59253168	         -8.34047031	          6.72163534	          0.00000000	          0.00000000	         -9.63077545	         -0.08068692	         -2.33376455	          0.00000000	          0.00000000	          0.00000000	          1.49700757	          0.00000000	         -0.14982910	        -23.40322477	        499.59123497	         14.01092538	          2.02014514	          0.00000000	         -0.27087076	          0.00000000	          0.00000000	          0.00000000	          0.00000000	         -0.79774207	          0.00000000	          1.98842001	          0.89669013	         -0.24082616	          1.98011577	          0.87384623	         -0.17358987	          1.99153221	          0.88164550	         -0.32338244	          2.14803076	          0.49171326	         -0.13666072	          2.00156736	          0.46501288	         -0.28745031	          1.94396162	          0.15944816	         -0.14729445	          1.95264959	          0.07021512	         -0.25562242	          2.07064819	          0.96549153	         -0.23745260	          2.06173491	          0.95940226	         -0.12050212	          2.07956147	          0.97158080	         -0.35440308	          1.88162816	          1.00042617	         -0.21048713	          1.89270484	          1.00476098	         -0.29543817	          2.15246677	          0.49925235	         -0.07881840	          2.01181054	          0.46035248	         -0.34434807	          2.16646600	          0.48159796	         -0.18679719	          1.98381948	          0.47719362	         -0.23101489	          1.92802036	          0.16809794	         -0.11164258	          1.93916285	          0.06893786	         -0.29219398	          1.96238852	          0.16459106	         -0.17315327	          1.95870578	          0.08660331	         -0.23017287	          1.88620579	          1.43105245	         -0.23093444	          2.00902963	          1.35507858	         -0.17323025	          2.02136445	          1.35980296	         -0.27892810	          1.99795032	          1.36491120	         -0.22472849	          2.08059621	          1.20194268	         -0.23429714	          2.15670013	          0.60621625	         -0.00285648	          2.14972615	          0.56681430	         -0.28390759	          2.15047455	          0.67122728	         -0.07055282	          2.08603930	          0.61774540	         -0.33755645	          2.18802667	          0.59211463	         -0.08808486	          2.06387091	          0.53294218	         -0.32513332	          2.00148940	          0.27659428	         -0.02073677	          1.98908556	          0.19480224	         -0.38378510	          1.98694837	          0.24893393	         -0.09609043	          1.95905364	          0.16549243	         -0.31382257	          2.01749253	          0.06699134	         -0.11540735	          2.07340312	          0.03925915	         -0.26456898	
          0.87500000	          2.07966614	          0.96551192	         -0.23794863	          1.02944756	          3.47885442	         -3.59767151	         23.89084625	         -5.65103769	         12.98896122	        -52.90845108	         -5.20597553	          0.00000000	          0.00000000	          0.16205883	          7.58479118	          5.93659592	         -8.02843475	          7.16184139	          0.00000000	          0.00000000	         -9.85563183	          0.05890154	         -2.30765533	          0.00000000	          0.00000000	          0.00000000	          1.49809644	          0.00000000	         -0.15016760	        -21.23144687	        499.59071182	         14.35567346	          2.02321082	          0.00000000	         -0.27115115	          0.00000000	          0.00000000	          0.00000000	          0.00000000	         -0.87373029	          0.00000000	          1.99713540	          0.89599746	         -0.24029535	          1.98955107	          0.87391454	         -0.17343010	          2.00055170	          0.88106179	         -0.32328632	          2.16196752	          0.49299419	         -0.13745843	          2.00504231	          0.46466246	         -0.28743702	          1.97295010	          0.15193792	         -0.14757772	          1.95297325	          0.07023733	         -0.25525919	          2.07966614	          0.96551192	         -0.23794863	          2.07108879	          0.95993924	         -0.12110598	          2.08824325	          0.97108465	         -0.35479128	          1.89046156	          0.99997389	         -0.21043402	          1.90157819	          1.00410235	         -0.29539996	          2.16735482	          0.50088286	         -0.07974363	          2.01536226	          0.45987731	         -0.34431055	          2.18031549	          0.48387504	         -0.18804222	          1.98653984	          0.47832957	         -0.23051371	          1.95687521	          0.15978526	         -0.11180038	          1.93958580	          0.06901795	         -0.29186910	          1.99071789	          0.15795642	         -0.17359398	          1.95872509	          0.08647349	         -0.22990032	          1.89545214	          1.43088889	         -0.23131181	          2.01823926	          1.35490358	         -0.17441061	          2.03016472	          1.35938656	         -0.27922818	          2.00715494	          1.36464477	         -0.22534940	          2.08930635	          1.20151937	         -0.23496427	          2.17183733	          0.60887420	         -0.00404757	          2.15439153	          0.56463313	         -0.28353474	          2.16353369	          0.67353052	         -0.07178455	          2.09186316	          0.61636949	         -0.33768830	          2.20205641	          0.59480387	         -0.08994164	          2.06789255	          0.53166497	         -0.32470575	          2.02606153	          0.27137601	         -0.02105818	          1.99076605	          0.19442485	         -0.38351780	          2.01347232	          0.24349062	         -0.09622956	          1.96061599	          0.16543172	         -0.31361142	          2.05220127	          0.06436143	         -0.11702302	          2.07347679	          0.03925731	         -0.26457018	
          0.88333333	          2.08866763	          0.96535873	         -0.23837885	          1.17933273	          3.21355987	         -3.48521185	         24.24306870	         -5.32490826	         13.72116852	        -50.61238861	         -4.38334274	          0.00000000	          0.00000000	         -0.79472351	          7.40591812	          6.38668299	         -7.70200443	          7.60374403	          0.00000000	          0.00000000	        -10.02574253	          0.19642307	         -2.27789474	          0.00000000	          0.00000000	          0.00000000	          1.49940857	          0.00000000	         -0.15037769	        -19.07888477	        501.86337517	         14.40364470	          2.02630408	          0.00000000	         -0.27134433	          0.00000000	          0.00000000	          0.00000000	          0.00000000	         -0.98464740	          0.00000000	          2.00602865	          0.89535654	         -0.23993044	          1.99898410	          0.87378669	         -0.17322616	          2.00954652	          0.88033736	         -0.32314119	          2.17536426	          0.49395618	         -0.13826256	          2.00846910	          0.46427250	         -0.28738502	          2.00253415	          0.14428277	         -0.14788139	          1.95331311	          0.07023317	         -0.25489786	          2.08866763	          0.96535873	         -0.23837885	          2.08044028	          0.96025622	         -0.12160506	          2.09689498	          0.97046131	         -0.35515264	          1.89930820	          0.99935383	         -0.21032098	          1.91041160	          1.00327790	         -0.29530999	          2.18163610	          0.50216883	         -0.08068245	          2.01896667	          0.45936134	         -0.34421527	          2.19186020	          0.48527315	         -0.18883595	          1.98986149	          0.47848731	         -0.23008929	          1.98631775	          0.15131080	         -0.11199773	          1.94003201	          0.06907050	         -0.29154837	          2.01984191	          0.15129928	         -0.17385402	          1.95828259	          0.08652342	         -0.22956778	          1.90453947	          1.43058002	         -0.23192710	          2.02769303	          1.35426021	         -0.17503151	          2.03926110	          1.35857081	         -0.27958536	          2.01637793	          1.36424482	         -0.22598085	          2.09829903	          1.20067191	         -0.23544969	          2.18634653	          0.61112499	         -0.00532578	          2.15909719	          0.56249017	         -0.28284746	          2.17612815	          0.67546821	         -0.07345177	          2.09751105	          0.61510760	         -0.33706307	          2.21480513	          0.59707016	         -0.09191423	          2.07216334	          0.53043061	         -0.32407150	          2.05075026	          0.26602298	         -0.02141073	          1.99245811	          0.19402899	         -0.38321328	          2.03844619	          0.23815411	         -0.09623580	          1.96188200	          0.16539153	         -0.31325588	          2.08713150	          0.06188585	         -0.11863635	          2.07350969	          0.03927144	         -0.26458094	
